solid owc_piston_4m
  facet normal 9.987955e-01 4.906767e-02 0.000000e+00
    outer loop
      vertex 1.900000e+00 0.000000e+00 -1.000000e+01
      vertex 1.890851e+00 1.862326e-01 -1.000000e+01
      vertex 1.890851e+00 1.862326e-01 1.000000e+01
    endloop
  endfacet
  facet normal 9.987955e-01 4.906767e-02 -0.000000e+00
    outer loop
      vertex 1.900000e+00 0.000000e+00 -1.000000e+01
      vertex 1.890851e+00 1.862326e-01 1.000000e+01
      vertex 1.900000e+00 0.000000e+00 1.000000e+01
    endloop
  endfacet
  facet normal 0.000000e+00 0.000000e+00 -1.000000e+00
    outer loop
      vertex 0.000000e+00 0.000000e+00 -1.000000e+01
      vertex 1.890851e+00 1.862326e-01 -1.000000e+01
      vertex 1.900000e+00 0.000000e+00 -1.000000e+01
    endloop
  endfacet
  facet normal 0.000000e+00 0.000000e+00 1.000000e+00
    outer loop
      vertex 0.000000e+00 0.000000e+00 1.000000e+01
      vertex 1.900000e+00 0.000000e+00 1.000000e+01
      vertex 1.890851e+00 1.862326e-01 1.000000e+01
    endloop
  endfacet
  facet normal 9.891765e-01 1.467305e-01 0.000000e+00
    outer loop
      vertex 1.890851e+00 1.862326e-01 -1.000000e+01
      vertex 1.863492e+00 3.706716e-01 -1.000000e+01
      vertex 1.863492e+00 3.706716e-01 1.000000e+01
    endloop
  endfacet
  facet normal 9.891765e-01 1.467305e-01 -0.000000e+00
    outer loop
      vertex 1.890851e+00 1.862326e-01 -1.000000e+01
      vertex 1.863492e+00 3.706716e-01 1.000000e+01
      vertex 1.890851e+00 1.862326e-01 1.000000e+01
    endloop
  endfacet
  facet normal 0.000000e+00 0.000000e+00 -1.000000e+00
    outer loop
      vertex 0.000000e+00 0.000000e+00 -1.000000e+01
      vertex 1.863492e+00 3.706716e-01 -1.000000e+01
      vertex 1.890851e+00 1.862326e-01 -1.000000e+01
    endloop
  endfacet
  facet normal 0.000000e+00 0.000000e+00 1.000000e+00
    outer loop
      vertex 0.000000e+00 0.000000e+00 1.000000e+01
      vertex 1.890851e+00 1.862326e-01 1.000000e+01
      vertex 1.863492e+00 3.706716e-01 1.000000e+01
    endloop
  endfacet
  facet normal 9.700313e-01 2.429802e-01 0.000000e+00
    outer loop
      vertex 1.863492e+00 3.706716e-01 -1.000000e+01
      vertex 1.818187e+00 5.515409e-01 -1.000000e+01
      vertex 1.818187e+00 5.515409e-01 1.000000e+01
    endloop
  endfacet
  facet normal 9.700313e-01 2.429802e-01 -0.000000e+00
    outer loop
      vertex 1.863492e+00 3.706716e-01 -1.000000e+01
      vertex 1.818187e+00 5.515409e-01 1.000000e+01
      vertex 1.863492e+00 3.706716e-01 1.000000e+01
    endloop
  endfacet
  facet normal 0.000000e+00 0.000000e+00 -1.000000e+00
    outer loop
      vertex 0.000000e+00 0.000000e+00 -1.000000e+01
      vertex 1.818187e+00 5.515409e-01 -1.000000e+01
      vertex 1.863492e+00 3.706716e-01 -1.000000e+01
    endloop
  endfacet
  facet normal 0.000000e+00 0.000000e+00 1.000000e+00
    outer loop
      vertex 0.000000e+00 0.000000e+00 1.000000e+01
      vertex 1.863492e+00 3.706716e-01 1.000000e+01
      vertex 1.818187e+00 5.515409e-01 1.000000e+01
    endloop
  endfacet
  facet normal 9.415441e-01 3.368899e-01 0.000000e+00
    outer loop
      vertex 1.818187e+00 5.515409e-01 -1.000000e+01
      vertex 1.755371e+00 7.270985e-01 -1.000000e+01
      vertex 1.755371e+00 7.270985e-01 1.000000e+01
    endloop
  endfacet
  facet normal 9.415441e-01 3.368899e-01 -0.000000e+00
    outer loop
      vertex 1.818187e+00 5.515409e-01 -1.000000e+01
      vertex 1.755371e+00 7.270985e-01 1.000000e+01
      vertex 1.818187e+00 5.515409e-01 1.000000e+01
    endloop
  endfacet
  facet normal 0.000000e+00 0.000000e+00 -1.000000e+00
    outer loop
      vertex 0.000000e+00 0.000000e+00 -1.000000e+01
      vertex 1.755371e+00 7.270985e-01 -1.000000e+01
      vertex 1.818187e+00 5.515409e-01 -1.000000e+01
    endloop
  endfacet
  facet normal 0.000000e+00 0.000000e+00 1.000000e+00
    outer loop
      vertex 0.000000e+00 0.000000e+00 1.000000e+01
      vertex 1.818187e+00 5.515409e-01 1.000000e+01
      vertex 1.755371e+00 7.270985e-01 1.000000e+01
    endloop
  endfacet
  facet normal 9.039893e-01 4.275551e-01 0.000000e+00
    outer loop
      vertex 1.755371e+00 7.270985e-01 -1.000000e+01
      vertex 1.675650e+00 8.956538e-01 -1.000000e+01
      vertex 1.675650e+00 8.956538e-01 1.000000e+01
    endloop
  endfacet
  facet normal 9.039893e-01 4.275551e-01 -0.000000e+00
    outer loop
      vertex 1.755371e+00 7.270985e-01 -1.000000e+01
      vertex 1.675650e+00 8.956538e-01 1.000000e+01
      vertex 1.755371e+00 7.270985e-01 1.000000e+01
    endloop
  endfacet
  facet normal 0.000000e+00 0.000000e+00 -1.000000e+00
    outer loop
      vertex 0.000000e+00 0.000000e+00 -1.000000e+01
      vertex 1.675650e+00 8.956538e-01 -1.000000e+01
      vertex 1.755371e+00 7.270985e-01 -1.000000e+01
    endloop
  endfacet
  facet normal 0.000000e+00 0.000000e+00 1.000000e+00
    outer loop
      vertex 0.000000e+00 0.000000e+00 1.000000e+01
      vertex 1.755371e+00 7.270985e-01 1.000000e+01
      vertex 1.675650e+00 8.956538e-01 1.000000e+01
    endloop
  endfacet
  facet normal 8.577286e-01 5.141027e-01 0.000000e+00
    outer loop
      vertex 1.675650e+00 8.956538e-01 -1.000000e+01
      vertex 1.579792e+00 1.055583e+00 -1.000000e+01
      vertex 1.579792e+00 1.055583e+00 1.000000e+01
    endloop
  endfacet
  facet normal 8.577286e-01 5.141027e-01 -0.000000e+00
    outer loop
      vertex 1.675650e+00 8.956538e-01 -1.000000e+01
      vertex 1.579792e+00 1.055583e+00 1.000000e+01
      vertex 1.675650e+00 8.956538e-01 1.000000e+01
    endloop
  endfacet
  facet normal 0.000000e+00 0.000000e+00 -1.000000e+00
    outer loop
      vertex 0.000000e+00 0.000000e+00 -1.000000e+01
      vertex 1.579792e+00 1.055583e+00 -1.000000e+01
      vertex 1.675650e+00 8.956538e-01 -1.000000e+01
    endloop
  endfacet
  facet normal 0.000000e+00 0.000000e+00 1.000000e+00
    outer loop
      vertex 0.000000e+00 0.000000e+00 1.000000e+01
      vertex 1.675650e+00 8.956538e-01 1.000000e+01
      vertex 1.579792e+00 1.055583e+00 1.000000e+01
    endloop
  endfacet
  facet normal 8.032075e-01 5.956993e-01 0.000000e+00
    outer loop
      vertex 1.579792e+00 1.055583e+00 -1.000000e+01
      vertex 1.468720e+00 1.205347e+00 -1.000000e+01
      vertex 1.468720e+00 1.205347e+00 1.000000e+01
    endloop
  endfacet
  facet normal 8.032075e-01 5.956993e-01 -0.000000e+00
    outer loop
      vertex 1.579792e+00 1.055583e+00 -1.000000e+01
      vertex 1.468720e+00 1.205347e+00 1.000000e+01
      vertex 1.579792e+00 1.055583e+00 1.000000e+01
    endloop
  endfacet
  facet normal 0.000000e+00 0.000000e+00 -1.000000e+00
    outer loop
      vertex 0.000000e+00 0.000000e+00 -1.000000e+01
      vertex 1.468720e+00 1.205347e+00 -1.000000e+01
      vertex 1.579792e+00 1.055583e+00 -1.000000e+01
    endloop
  endfacet
  facet normal 0.000000e+00 0.000000e+00 1.000000e+00
    outer loop
      vertex 0.000000e+00 0.000000e+00 1.000000e+01
      vertex 1.579792e+00 1.055583e+00 1.000000e+01
      vertex 1.468720e+00 1.205347e+00 1.000000e+01
    endloop
  endfacet
  facet normal 7.409511e-01 6.715590e-01 0.000000e+00
    outer loop
      vertex 1.468720e+00 1.205347e+00 -1.000000e+01
      vertex 1.343503e+00 1.343503e+00 -1.000000e+01
      vertex 1.343503e+00 1.343503e+00 1.000000e+01
    endloop
  endfacet
  facet normal 7.409511e-01 6.715590e-01 -0.000000e+00
    outer loop
      vertex 1.468720e+00 1.205347e+00 -1.000000e+01
      vertex 1.343503e+00 1.343503e+00 1.000000e+01
      vertex 1.468720e+00 1.205347e+00 1.000000e+01
    endloop
  endfacet
  facet normal 0.000000e+00 0.000000e+00 -1.000000e+00
    outer loop
      vertex 0.000000e+00 0.000000e+00 -1.000000e+01
      vertex 1.343503e+00 1.343503e+00 -1.000000e+01
      vertex 1.468720e+00 1.205347e+00 -1.000000e+01
    endloop
  endfacet
  facet normal 0.000000e+00 0.000000e+00 1.000000e+00
    outer loop
      vertex 0.000000e+00 0.000000e+00 1.000000e+01
      vertex 1.468720e+00 1.205347e+00 1.000000e+01
      vertex 1.343503e+00 1.343503e+00 1.000000e+01
    endloop
  endfacet
  facet normal 6.715590e-01 7.409511e-01 0.000000e+00
    outer loop
      vertex 1.343503e+00 1.343503e+00 -1.000000e+01
      vertex 1.205347e+00 1.468720e+00 -1.000000e+01
      vertex 1.205347e+00 1.468720e+00 1.000000e+01
    endloop
  endfacet
  facet normal 6.715590e-01 7.409511e-01 -0.000000e+00
    outer loop
      vertex 1.343503e+00 1.343503e+00 -1.000000e+01
      vertex 1.205347e+00 1.468720e+00 1.000000e+01
      vertex 1.343503e+00 1.343503e+00 1.000000e+01
    endloop
  endfacet
  facet normal 0.000000e+00 0.000000e+00 -1.000000e+00
    outer loop
      vertex 0.000000e+00 0.000000e+00 -1.000000e+01
      vertex 1.205347e+00 1.468720e+00 -1.000000e+01
      vertex 1.343503e+00 1.343503e+00 -1.000000e+01
    endloop
  endfacet
  facet normal 0.000000e+00 0.000000e+00 1.000000e+00
    outer loop
      vertex 0.000000e+00 0.000000e+00 1.000000e+01
      vertex 1.343503e+00 1.343503e+00 1.000000e+01
      vertex 1.205347e+00 1.468720e+00 1.000000e+01
    endloop
  endfacet
  facet normal 5.956993e-01 8.032075e-01 0.000000e+00
    outer loop
      vertex 1.205347e+00 1.468720e+00 -1.000000e+01
      vertex 1.055583e+00 1.579792e+00 -1.000000e+01
      vertex 1.055583e+00 1.579792e+00 1.000000e+01
    endloop
  endfacet
  facet normal 5.956993e-01 8.032075e-01 -0.000000e+00
    outer loop
      vertex 1.205347e+00 1.468720e+00 -1.000000e+01
      vertex 1.055583e+00 1.579792e+00 1.000000e+01
      vertex 1.205347e+00 1.468720e+00 1.000000e+01
    endloop
  endfacet
  facet normal 0.000000e+00 0.000000e+00 -1.000000e+00
    outer loop
      vertex 0.000000e+00 0.000000e+00 -1.000000e+01
      vertex 1.055583e+00 1.579792e+00 -1.000000e+01
      vertex 1.205347e+00 1.468720e+00 -1.000000e+01
    endloop
  endfacet
  facet normal 0.000000e+00 0.000000e+00 1.000000e+00
    outer loop
      vertex 0.000000e+00 0.000000e+00 1.000000e+01
      vertex 1.205347e+00 1.468720e+00 1.000000e+01
      vertex 1.055583e+00 1.579792e+00 1.000000e+01
    endloop
  endfacet
  facet normal 5.141027e-01 8.577286e-01 0.000000e+00
    outer loop
      vertex 1.055583e+00 1.579792e+00 -1.000000e+01
      vertex 8.956538e-01 1.675650e+00 -1.000000e+01
      vertex 8.956538e-01 1.675650e+00 1.000000e+01
    endloop
  endfacet
  facet normal 5.141027e-01 8.577286e-01 -0.000000e+00
    outer loop
      vertex 1.055583e+00 1.579792e+00 -1.000000e+01
      vertex 8.956538e-01 1.675650e+00 1.000000e+01
      vertex 1.055583e+00 1.579792e+00 1.000000e+01
    endloop
  endfacet
  facet normal 0.000000e+00 0.000000e+00 -1.000000e+00
    outer loop
      vertex 0.000000e+00 0.000000e+00 -1.000000e+01
      vertex 8.956538e-01 1.675650e+00 -1.000000e+01
      vertex 1.055583e+00 1.579792e+00 -1.000000e+01
    endloop
  endfacet
  facet normal 0.000000e+00 0.000000e+00 1.000000e+00
    outer loop
      vertex 0.000000e+00 0.000000e+00 1.000000e+01
      vertex 1.055583e+00 1.579792e+00 1.000000e+01
      vertex 8.956538e-01 1.675650e+00 1.000000e+01
    endloop
  endfacet
  facet normal 4.275551e-01 9.039893e-01 0.000000e+00
    outer loop
      vertex 8.956538e-01 1.675650e+00 -1.000000e+01
      vertex 7.270985e-01 1.755371e+00 -1.000000e+01
      vertex 7.270985e-01 1.755371e+00 1.000000e+01
    endloop
  endfacet
  facet normal 4.275551e-01 9.039893e-01 -0.000000e+00
    outer loop
      vertex 8.956538e-01 1.675650e+00 -1.000000e+01
      vertex 7.270985e-01 1.755371e+00 1.000000e+01
      vertex 8.956538e-01 1.675650e+00 1.000000e+01
    endloop
  endfacet
  facet normal 0.000000e+00 0.000000e+00 -1.000000e+00
    outer loop
      vertex 0.000000e+00 0.000000e+00 -1.000000e+01
      vertex 7.270985e-01 1.755371e+00 -1.000000e+01
      vertex 8.956538e-01 1.675650e+00 -1.000000e+01
    endloop
  endfacet
  facet normal 0.000000e+00 0.000000e+00 1.000000e+00
    outer loop
      vertex 0.000000e+00 0.000000e+00 1.000000e+01
      vertex 8.956538e-01 1.675650e+00 1.000000e+01
      vertex 7.270985e-01 1.755371e+00 1.000000e+01
    endloop
  endfacet
  facet normal 3.368899e-01 9.415441e-01 0.000000e+00
    outer loop
      vertex 7.270985e-01 1.755371e+00 -1.000000e+01
      vertex 5.515409e-01 1.818187e+00 -1.000000e+01
      vertex 5.515409e-01 1.818187e+00 1.000000e+01
    endloop
  endfacet
  facet normal 3.368899e-01 9.415441e-01 -0.000000e+00
    outer loop
      vertex 7.270985e-01 1.755371e+00 -1.000000e+01
      vertex 5.515409e-01 1.818187e+00 1.000000e+01
      vertex 7.270985e-01 1.755371e+00 1.000000e+01
    endloop
  endfacet
  facet normal 0.000000e+00 0.000000e+00 -1.000000e+00
    outer loop
      vertex 0.000000e+00 0.000000e+00 -1.000000e+01
      vertex 5.515409e-01 1.818187e+00 -1.000000e+01
      vertex 7.270985e-01 1.755371e+00 -1.000000e+01
    endloop
  endfacet
  facet normal 0.000000e+00 0.000000e+00 1.000000e+00
    outer loop
      vertex 0.000000e+00 0.000000e+00 1.000000e+01
      vertex 7.270985e-01 1.755371e+00 1.000000e+01
      vertex 5.515409e-01 1.818187e+00 1.000000e+01
    endloop
  endfacet
  facet normal 2.429802e-01 9.700313e-01 0.000000e+00
    outer loop
      vertex 5.515409e-01 1.818187e+00 -1.000000e+01
      vertex 3.706716e-01 1.863492e+00 -1.000000e+01
      vertex 3.706716e-01 1.863492e+00 1.000000e+01
    endloop
  endfacet
  facet normal 2.429802e-01 9.700313e-01 -0.000000e+00
    outer loop
      vertex 5.515409e-01 1.818187e+00 -1.000000e+01
      vertex 3.706716e-01 1.863492e+00 1.000000e+01
      vertex 5.515409e-01 1.818187e+00 1.000000e+01
    endloop
  endfacet
  facet normal 0.000000e+00 0.000000e+00 -1.000000e+00
    outer loop
      vertex 0.000000e+00 0.000000e+00 -1.000000e+01
      vertex 3.706716e-01 1.863492e+00 -1.000000e+01
      vertex 5.515409e-01 1.818187e+00 -1.000000e+01
    endloop
  endfacet
  facet normal 0.000000e+00 0.000000e+00 1.000000e+00
    outer loop
      vertex 0.000000e+00 0.000000e+00 1.000000e+01
      vertex 5.515409e-01 1.818187e+00 1.000000e+01
      vertex 3.706716e-01 1.863492e+00 1.000000e+01
    endloop
  endfacet
  facet normal 1.467305e-01 9.891765e-01 0.000000e+00
    outer loop
      vertex 3.706716e-01 1.863492e+00 -1.000000e+01
      vertex 1.862326e-01 1.890851e+00 -1.000000e+01
      vertex 1.862326e-01 1.890851e+00 1.000000e+01
    endloop
  endfacet
  facet normal 1.467305e-01 9.891765e-01 -0.000000e+00
    outer loop
      vertex 3.706716e-01 1.863492e+00 -1.000000e+01
      vertex 1.862326e-01 1.890851e+00 1.000000e+01
      vertex 3.706716e-01 1.863492e+00 1.000000e+01
    endloop
  endfacet
  facet normal 0.000000e+00 0.000000e+00 -1.000000e+00
    outer loop
      vertex 0.000000e+00 0.000000e+00 -1.000000e+01
      vertex 1.862326e-01 1.890851e+00 -1.000000e+01
      vertex 3.706716e-01 1.863492e+00 -1.000000e+01
    endloop
  endfacet
  facet normal 0.000000e+00 0.000000e+00 1.000000e+00
    outer loop
      vertex 0.000000e+00 0.000000e+00 1.000000e+01
      vertex 3.706716e-01 1.863492e+00 1.000000e+01
      vertex 1.862326e-01 1.890851e+00 1.000000e+01
    endloop
  endfacet
  facet normal 4.906767e-02 9.987955e-01 0.000000e+00
    outer loop
      vertex 1.862326e-01 1.890851e+00 -1.000000e+01
      vertex 1.163414e-16 1.900000e+00 -1.000000e+01
      vertex 1.163414e-16 1.900000e+00 1.000000e+01
    endloop
  endfacet
  facet normal 4.906767e-02 9.987955e-01 -0.000000e+00
    outer loop
      vertex 1.862326e-01 1.890851e+00 -1.000000e+01
      vertex 1.163414e-16 1.900000e+00 1.000000e+01
      vertex 1.862326e-01 1.890851e+00 1.000000e+01
    endloop
  endfacet
  facet normal 0.000000e+00 0.000000e+00 -1.000000e+00
    outer loop
      vertex 0.000000e+00 0.000000e+00 -1.000000e+01
      vertex 1.163414e-16 1.900000e+00 -1.000000e+01
      vertex 1.862326e-01 1.890851e+00 -1.000000e+01
    endloop
  endfacet
  facet normal 0.000000e+00 0.000000e+00 1.000000e+00
    outer loop
      vertex 0.000000e+00 0.000000e+00 1.000000e+01
      vertex 1.862326e-01 1.890851e+00 1.000000e+01
      vertex 1.163414e-16 1.900000e+00 1.000000e+01
    endloop
  endfacet
  facet normal -4.906767e-02 9.987955e-01 0.000000e+00
    outer loop
      vertex 1.163414e-16 1.900000e+00 -1.000000e+01
      vertex -1.862326e-01 1.890851e+00 -1.000000e+01
      vertex -1.862326e-01 1.890851e+00 1.000000e+01
    endloop
  endfacet
  facet normal -4.906767e-02 9.987955e-01 0.000000e+00
    outer loop
      vertex 1.163414e-16 1.900000e+00 -1.000000e+01
      vertex -1.862326e-01 1.890851e+00 1.000000e+01
      vertex 1.163414e-16 1.900000e+00 1.000000e+01
    endloop
  endfacet
  facet normal 0.000000e+00 0.000000e+00 -1.000000e+00
    outer loop
      vertex 0.000000e+00 0.000000e+00 -1.000000e+01
      vertex -1.862326e-01 1.890851e+00 -1.000000e+01
      vertex 1.163414e-16 1.900000e+00 -1.000000e+01
    endloop
  endfacet
  facet normal 0.000000e+00 -0.000000e+00 1.000000e+00
    outer loop
      vertex 0.000000e+00 0.000000e+00 1.000000e+01
      vertex 1.163414e-16 1.900000e+00 1.000000e+01
      vertex -1.862326e-01 1.890851e+00 1.000000e+01
    endloop
  endfacet
  facet normal -1.467305e-01 9.891765e-01 0.000000e+00
    outer loop
      vertex -1.862326e-01 1.890851e+00 -1.000000e+01
      vertex -3.706716e-01 1.863492e+00 -1.000000e+01
      vertex -3.706716e-01 1.863492e+00 1.000000e+01
    endloop
  endfacet
  facet normal -1.467305e-01 9.891765e-01 0.000000e+00
    outer loop
      vertex -1.862326e-01 1.890851e+00 -1.000000e+01
      vertex -3.706716e-01 1.863492e+00 1.000000e+01
      vertex -1.862326e-01 1.890851e+00 1.000000e+01
    endloop
  endfacet
  facet normal 0.000000e+00 0.000000e+00 -1.000000e+00
    outer loop
      vertex 0.000000e+00 0.000000e+00 -1.000000e+01
      vertex -3.706716e-01 1.863492e+00 -1.000000e+01
      vertex -1.862326e-01 1.890851e+00 -1.000000e+01
    endloop
  endfacet
  facet normal 0.000000e+00 0.000000e+00 1.000000e+00
    outer loop
      vertex 0.000000e+00 0.000000e+00 1.000000e+01
      vertex -1.862326e-01 1.890851e+00 1.000000e+01
      vertex -3.706716e-01 1.863492e+00 1.000000e+01
    endloop
  endfacet
  facet normal -2.429802e-01 9.700313e-01 0.000000e+00
    outer loop
      vertex -3.706716e-01 1.863492e+00 -1.000000e+01
      vertex -5.515409e-01 1.818187e+00 -1.000000e+01
      vertex -5.515409e-01 1.818187e+00 1.000000e+01
    endloop
  endfacet
  facet normal -2.429802e-01 9.700313e-01 0.000000e+00
    outer loop
      vertex -3.706716e-01 1.863492e+00 -1.000000e+01
      vertex -5.515409e-01 1.818187e+00 1.000000e+01
      vertex -3.706716e-01 1.863492e+00 1.000000e+01
    endloop
  endfacet
  facet normal 0.000000e+00 0.000000e+00 -1.000000e+00
    outer loop
      vertex 0.000000e+00 0.000000e+00 -1.000000e+01
      vertex -5.515409e-01 1.818187e+00 -1.000000e+01
      vertex -3.706716e-01 1.863492e+00 -1.000000e+01
    endloop
  endfacet
  facet normal 0.000000e+00 0.000000e+00 1.000000e+00
    outer loop
      vertex 0.000000e+00 0.000000e+00 1.000000e+01
      vertex -3.706716e-01 1.863492e+00 1.000000e+01
      vertex -5.515409e-01 1.818187e+00 1.000000e+01
    endloop
  endfacet
  facet normal -3.368899e-01 9.415441e-01 0.000000e+00
    outer loop
      vertex -5.515409e-01 1.818187e+00 -1.000000e+01
      vertex -7.270985e-01 1.755371e+00 -1.000000e+01
      vertex -7.270985e-01 1.755371e+00 1.000000e+01
    endloop
  endfacet
  facet normal -3.368899e-01 9.415441e-01 0.000000e+00
    outer loop
      vertex -5.515409e-01 1.818187e+00 -1.000000e+01
      vertex -7.270985e-01 1.755371e+00 1.000000e+01
      vertex -5.515409e-01 1.818187e+00 1.000000e+01
    endloop
  endfacet
  facet normal 0.000000e+00 0.000000e+00 -1.000000e+00
    outer loop
      vertex 0.000000e+00 0.000000e+00 -1.000000e+01
      vertex -7.270985e-01 1.755371e+00 -1.000000e+01
      vertex -5.515409e-01 1.818187e+00 -1.000000e+01
    endloop
  endfacet
  facet normal 0.000000e+00 0.000000e+00 1.000000e+00
    outer loop
      vertex 0.000000e+00 0.000000e+00 1.000000e+01
      vertex -5.515409e-01 1.818187e+00 1.000000e+01
      vertex -7.270985e-01 1.755371e+00 1.000000e+01
    endloop
  endfacet
  facet normal -4.275551e-01 9.039893e-01 0.000000e+00
    outer loop
      vertex -7.270985e-01 1.755371e+00 -1.000000e+01
      vertex -8.956538e-01 1.675650e+00 -1.000000e+01
      vertex -8.956538e-01 1.675650e+00 1.000000e+01
    endloop
  endfacet
  facet normal -4.275551e-01 9.039893e-01 0.000000e+00
    outer loop
      vertex -7.270985e-01 1.755371e+00 -1.000000e+01
      vertex -8.956538e-01 1.675650e+00 1.000000e+01
      vertex -7.270985e-01 1.755371e+00 1.000000e+01
    endloop
  endfacet
  facet normal 0.000000e+00 0.000000e+00 -1.000000e+00
    outer loop
      vertex 0.000000e+00 0.000000e+00 -1.000000e+01
      vertex -8.956538e-01 1.675650e+00 -1.000000e+01
      vertex -7.270985e-01 1.755371e+00 -1.000000e+01
    endloop
  endfacet
  facet normal 0.000000e+00 0.000000e+00 1.000000e+00
    outer loop
      vertex 0.000000e+00 0.000000e+00 1.000000e+01
      vertex -7.270985e-01 1.755371e+00 1.000000e+01
      vertex -8.956538e-01 1.675650e+00 1.000000e+01
    endloop
  endfacet
  facet normal -5.141027e-01 8.577286e-01 0.000000e+00
    outer loop
      vertex -8.956538e-01 1.675650e+00 -1.000000e+01
      vertex -1.055583e+00 1.579792e+00 -1.000000e+01
      vertex -1.055583e+00 1.579792e+00 1.000000e+01
    endloop
  endfacet
  facet normal -5.141027e-01 8.577286e-01 0.000000e+00
    outer loop
      vertex -8.956538e-01 1.675650e+00 -1.000000e+01
      vertex -1.055583e+00 1.579792e+00 1.000000e+01
      vertex -8.956538e-01 1.675650e+00 1.000000e+01
    endloop
  endfacet
  facet normal 0.000000e+00 0.000000e+00 -1.000000e+00
    outer loop
      vertex 0.000000e+00 0.000000e+00 -1.000000e+01
      vertex -1.055583e+00 1.579792e+00 -1.000000e+01
      vertex -8.956538e-01 1.675650e+00 -1.000000e+01
    endloop
  endfacet
  facet normal 0.000000e+00 0.000000e+00 1.000000e+00
    outer loop
      vertex 0.000000e+00 0.000000e+00 1.000000e+01
      vertex -8.956538e-01 1.675650e+00 1.000000e+01
      vertex -1.055583e+00 1.579792e+00 1.000000e+01
    endloop
  endfacet
  facet normal -5.956993e-01 8.032075e-01 0.000000e+00
    outer loop
      vertex -1.055583e+00 1.579792e+00 -1.000000e+01
      vertex -1.205347e+00 1.468720e+00 -1.000000e+01
      vertex -1.205347e+00 1.468720e+00 1.000000e+01
    endloop
  endfacet
  facet normal -5.956993e-01 8.032075e-01 0.000000e+00
    outer loop
      vertex -1.055583e+00 1.579792e+00 -1.000000e+01
      vertex -1.205347e+00 1.468720e+00 1.000000e+01
      vertex -1.055583e+00 1.579792e+00 1.000000e+01
    endloop
  endfacet
  facet normal 0.000000e+00 0.000000e+00 -1.000000e+00
    outer loop
      vertex 0.000000e+00 0.000000e+00 -1.000000e+01
      vertex -1.205347e+00 1.468720e+00 -1.000000e+01
      vertex -1.055583e+00 1.579792e+00 -1.000000e+01
    endloop
  endfacet
  facet normal 0.000000e+00 0.000000e+00 1.000000e+00
    outer loop
      vertex 0.000000e+00 0.000000e+00 1.000000e+01
      vertex -1.055583e+00 1.579792e+00 1.000000e+01
      vertex -1.205347e+00 1.468720e+00 1.000000e+01
    endloop
  endfacet
  facet normal -6.715590e-01 7.409511e-01 0.000000e+00
    outer loop
      vertex -1.205347e+00 1.468720e+00 -1.000000e+01
      vertex -1.343503e+00 1.343503e+00 -1.000000e+01
      vertex -1.343503e+00 1.343503e+00 1.000000e+01
    endloop
  endfacet
  facet normal -6.715590e-01 7.409511e-01 0.000000e+00
    outer loop
      vertex -1.205347e+00 1.468720e+00 -1.000000e+01
      vertex -1.343503e+00 1.343503e+00 1.000000e+01
      vertex -1.205347e+00 1.468720e+00 1.000000e+01
    endloop
  endfacet
  facet normal 0.000000e+00 0.000000e+00 -1.000000e+00
    outer loop
      vertex 0.000000e+00 0.000000e+00 -1.000000e+01
      vertex -1.343503e+00 1.343503e+00 -1.000000e+01
      vertex -1.205347e+00 1.468720e+00 -1.000000e+01
    endloop
  endfacet
  facet normal 0.000000e+00 0.000000e+00 1.000000e+00
    outer loop
      vertex 0.000000e+00 0.000000e+00 1.000000e+01
      vertex -1.205347e+00 1.468720e+00 1.000000e+01
      vertex -1.343503e+00 1.343503e+00 1.000000e+01
    endloop
  endfacet
  facet normal -7.409511e-01 6.715590e-01 0.000000e+00
    outer loop
      vertex -1.343503e+00 1.343503e+00 -1.000000e+01
      vertex -1.468720e+00 1.205347e+00 -1.000000e+01
      vertex -1.468720e+00 1.205347e+00 1.000000e+01
    endloop
  endfacet
  facet normal -7.409511e-01 6.715590e-01 0.000000e+00
    outer loop
      vertex -1.343503e+00 1.343503e+00 -1.000000e+01
      vertex -1.468720e+00 1.205347e+00 1.000000e+01
      vertex -1.343503e+00 1.343503e+00 1.000000e+01
    endloop
  endfacet
  facet normal 0.000000e+00 0.000000e+00 -1.000000e+00
    outer loop
      vertex 0.000000e+00 0.000000e+00 -1.000000e+01
      vertex -1.468720e+00 1.205347e+00 -1.000000e+01
      vertex -1.343503e+00 1.343503e+00 -1.000000e+01
    endloop
  endfacet
  facet normal 0.000000e+00 0.000000e+00 1.000000e+00
    outer loop
      vertex 0.000000e+00 0.000000e+00 1.000000e+01
      vertex -1.343503e+00 1.343503e+00 1.000000e+01
      vertex -1.468720e+00 1.205347e+00 1.000000e+01
    endloop
  endfacet
  facet normal -8.032075e-01 5.956993e-01 0.000000e+00
    outer loop
      vertex -1.468720e+00 1.205347e+00 -1.000000e+01
      vertex -1.579792e+00 1.055583e+00 -1.000000e+01
      vertex -1.579792e+00 1.055583e+00 1.000000e+01
    endloop
  endfacet
  facet normal -8.032075e-01 5.956993e-01 0.000000e+00
    outer loop
      vertex -1.468720e+00 1.205347e+00 -1.000000e+01
      vertex -1.579792e+00 1.055583e+00 1.000000e+01
      vertex -1.468720e+00 1.205347e+00 1.000000e+01
    endloop
  endfacet
  facet normal 0.000000e+00 0.000000e+00 -1.000000e+00
    outer loop
      vertex 0.000000e+00 0.000000e+00 -1.000000e+01
      vertex -1.579792e+00 1.055583e+00 -1.000000e+01
      vertex -1.468720e+00 1.205347e+00 -1.000000e+01
    endloop
  endfacet
  facet normal 0.000000e+00 0.000000e+00 1.000000e+00
    outer loop
      vertex 0.000000e+00 0.000000e+00 1.000000e+01
      vertex -1.468720e+00 1.205347e+00 1.000000e+01
      vertex -1.579792e+00 1.055583e+00 1.000000e+01
    endloop
  endfacet
  facet normal -8.577286e-01 5.141027e-01 0.000000e+00
    outer loop
      vertex -1.579792e+00 1.055583e+00 -1.000000e+01
      vertex -1.675650e+00 8.956538e-01 -1.000000e+01
      vertex -1.675650e+00 8.956538e-01 1.000000e+01
    endloop
  endfacet
  facet normal -8.577286e-01 5.141027e-01 0.000000e+00
    outer loop
      vertex -1.579792e+00 1.055583e+00 -1.000000e+01
      vertex -1.675650e+00 8.956538e-01 1.000000e+01
      vertex -1.579792e+00 1.055583e+00 1.000000e+01
    endloop
  endfacet
  facet normal 0.000000e+00 0.000000e+00 -1.000000e+00
    outer loop
      vertex 0.000000e+00 0.000000e+00 -1.000000e+01
      vertex -1.675650e+00 8.956538e-01 -1.000000e+01
      vertex -1.579792e+00 1.055583e+00 -1.000000e+01
    endloop
  endfacet
  facet normal 0.000000e+00 0.000000e+00 1.000000e+00
    outer loop
      vertex 0.000000e+00 0.000000e+00 1.000000e+01
      vertex -1.579792e+00 1.055583e+00 1.000000e+01
      vertex -1.675650e+00 8.956538e-01 1.000000e+01
    endloop
  endfacet
  facet normal -9.039893e-01 4.275551e-01 0.000000e+00
    outer loop
      vertex -1.675650e+00 8.956538e-01 -1.000000e+01
      vertex -1.755371e+00 7.270985e-01 -1.000000e+01
      vertex -1.755371e+00 7.270985e-01 1.000000e+01
    endloop
  endfacet
  facet normal -9.039893e-01 4.275551e-01 0.000000e+00
    outer loop
      vertex -1.675650e+00 8.956538e-01 -1.000000e+01
      vertex -1.755371e+00 7.270985e-01 1.000000e+01
      vertex -1.675650e+00 8.956538e-01 1.000000e+01
    endloop
  endfacet
  facet normal 0.000000e+00 0.000000e+00 -1.000000e+00
    outer loop
      vertex 0.000000e+00 0.000000e+00 -1.000000e+01
      vertex -1.755371e+00 7.270985e-01 -1.000000e+01
      vertex -1.675650e+00 8.956538e-01 -1.000000e+01
    endloop
  endfacet
  facet normal 0.000000e+00 0.000000e+00 1.000000e+00
    outer loop
      vertex 0.000000e+00 0.000000e+00 1.000000e+01
      vertex -1.675650e+00 8.956538e-01 1.000000e+01
      vertex -1.755371e+00 7.270985e-01 1.000000e+01
    endloop
  endfacet
  facet normal -9.415441e-01 3.368899e-01 0.000000e+00
    outer loop
      vertex -1.755371e+00 7.270985e-01 -1.000000e+01
      vertex -1.818187e+00 5.515409e-01 -1.000000e+01
      vertex -1.818187e+00 5.515409e-01 1.000000e+01
    endloop
  endfacet
  facet normal -9.415441e-01 3.368899e-01 0.000000e+00
    outer loop
      vertex -1.755371e+00 7.270985e-01 -1.000000e+01
      vertex -1.818187e+00 5.515409e-01 1.000000e+01
      vertex -1.755371e+00 7.270985e-01 1.000000e+01
    endloop
  endfacet
  facet normal 0.000000e+00 0.000000e+00 -1.000000e+00
    outer loop
      vertex 0.000000e+00 0.000000e+00 -1.000000e+01
      vertex -1.818187e+00 5.515409e-01 -1.000000e+01
      vertex -1.755371e+00 7.270985e-01 -1.000000e+01
    endloop
  endfacet
  facet normal 0.000000e+00 0.000000e+00 1.000000e+00
    outer loop
      vertex 0.000000e+00 0.000000e+00 1.000000e+01
      vertex -1.755371e+00 7.270985e-01 1.000000e+01
      vertex -1.818187e+00 5.515409e-01 1.000000e+01
    endloop
  endfacet
  facet normal -9.700313e-01 2.429802e-01 0.000000e+00
    outer loop
      vertex -1.818187e+00 5.515409e-01 -1.000000e+01
      vertex -1.863492e+00 3.706716e-01 -1.000000e+01
      vertex -1.863492e+00 3.706716e-01 1.000000e+01
    endloop
  endfacet
  facet normal -9.700313e-01 2.429802e-01 0.000000e+00
    outer loop
      vertex -1.818187e+00 5.515409e-01 -1.000000e+01
      vertex -1.863492e+00 3.706716e-01 1.000000e+01
      vertex -1.818187e+00 5.515409e-01 1.000000e+01
    endloop
  endfacet
  facet normal 0.000000e+00 0.000000e+00 -1.000000e+00
    outer loop
      vertex 0.000000e+00 0.000000e+00 -1.000000e+01
      vertex -1.863492e+00 3.706716e-01 -1.000000e+01
      vertex -1.818187e+00 5.515409e-01 -1.000000e+01
    endloop
  endfacet
  facet normal 0.000000e+00 0.000000e+00 1.000000e+00
    outer loop
      vertex 0.000000e+00 0.000000e+00 1.000000e+01
      vertex -1.818187e+00 5.515409e-01 1.000000e+01
      vertex -1.863492e+00 3.706716e-01 1.000000e+01
    endloop
  endfacet
  facet normal -9.891765e-01 1.467305e-01 0.000000e+00
    outer loop
      vertex -1.863492e+00 3.706716e-01 -1.000000e+01
      vertex -1.890851e+00 1.862326e-01 -1.000000e+01
      vertex -1.890851e+00 1.862326e-01 1.000000e+01
    endloop
  endfacet
  facet normal -9.891765e-01 1.467305e-01 0.000000e+00
    outer loop
      vertex -1.863492e+00 3.706716e-01 -1.000000e+01
      vertex -1.890851e+00 1.862326e-01 1.000000e+01
      vertex -1.863492e+00 3.706716e-01 1.000000e+01
    endloop
  endfacet
  facet normal 0.000000e+00 0.000000e+00 -1.000000e+00
    outer loop
      vertex 0.000000e+00 0.000000e+00 -1.000000e+01
      vertex -1.890851e+00 1.862326e-01 -1.000000e+01
      vertex -1.863492e+00 3.706716e-01 -1.000000e+01
    endloop
  endfacet
  facet normal 0.000000e+00 0.000000e+00 1.000000e+00
    outer loop
      vertex 0.000000e+00 0.000000e+00 1.000000e+01
      vertex -1.863492e+00 3.706716e-01 1.000000e+01
      vertex -1.890851e+00 1.862326e-01 1.000000e+01
    endloop
  endfacet
  facet normal -9.987955e-01 4.906767e-02 0.000000e+00
    outer loop
      vertex -1.890851e+00 1.862326e-01 -1.000000e+01
      vertex -1.900000e+00 2.326829e-16 -1.000000e+01
      vertex -1.900000e+00 2.326829e-16 1.000000e+01
    endloop
  endfacet
  facet normal -9.987955e-01 4.906767e-02 0.000000e+00
    outer loop
      vertex -1.890851e+00 1.862326e-01 -1.000000e+01
      vertex -1.900000e+00 2.326829e-16 1.000000e+01
      vertex -1.890851e+00 1.862326e-01 1.000000e+01
    endloop
  endfacet
  facet normal 0.000000e+00 0.000000e+00 -1.000000e+00
    outer loop
      vertex 0.000000e+00 0.000000e+00 -1.000000e+01
      vertex -1.900000e+00 2.326829e-16 -1.000000e+01
      vertex -1.890851e+00 1.862326e-01 -1.000000e+01
    endloop
  endfacet
  facet normal 0.000000e+00 0.000000e+00 1.000000e+00
    outer loop
      vertex 0.000000e+00 0.000000e+00 1.000000e+01
      vertex -1.890851e+00 1.862326e-01 1.000000e+01
      vertex -1.900000e+00 2.326829e-16 1.000000e+01
    endloop
  endfacet
  facet normal -9.987955e-01 -4.906767e-02 0.000000e+00
    outer loop
      vertex -1.900000e+00 2.326829e-16 -1.000000e+01
      vertex -1.890851e+00 -1.862326e-01 -1.000000e+01
      vertex -1.890851e+00 -1.862326e-01 1.000000e+01
    endloop
  endfacet
  facet normal -9.987955e-01 -4.906767e-02 0.000000e+00
    outer loop
      vertex -1.900000e+00 2.326829e-16 -1.000000e+01
      vertex -1.890851e+00 -1.862326e-01 1.000000e+01
      vertex -1.900000e+00 2.326829e-16 1.000000e+01
    endloop
  endfacet
  facet normal -0.000000e+00 0.000000e+00 -1.000000e+00
    outer loop
      vertex 0.000000e+00 0.000000e+00 -1.000000e+01
      vertex -1.890851e+00 -1.862326e-01 -1.000000e+01
      vertex -1.900000e+00 2.326829e-16 -1.000000e+01
    endloop
  endfacet
  facet normal 0.000000e+00 0.000000e+00 1.000000e+00
    outer loop
      vertex 0.000000e+00 0.000000e+00 1.000000e+01
      vertex -1.900000e+00 2.326829e-16 1.000000e+01
      vertex -1.890851e+00 -1.862326e-01 1.000000e+01
    endloop
  endfacet
  facet normal -9.891765e-01 -1.467305e-01 0.000000e+00
    outer loop
      vertex -1.890851e+00 -1.862326e-01 -1.000000e+01
      vertex -1.863492e+00 -3.706716e-01 -1.000000e+01
      vertex -1.863492e+00 -3.706716e-01 1.000000e+01
    endloop
  endfacet
  facet normal -9.891765e-01 -1.467305e-01 0.000000e+00
    outer loop
      vertex -1.890851e+00 -1.862326e-01 -1.000000e+01
      vertex -1.863492e+00 -3.706716e-01 1.000000e+01
      vertex -1.890851e+00 -1.862326e-01 1.000000e+01
    endloop
  endfacet
  facet normal 0.000000e+00 0.000000e+00 -1.000000e+00
    outer loop
      vertex 0.000000e+00 0.000000e+00 -1.000000e+01
      vertex -1.863492e+00 -3.706716e-01 -1.000000e+01
      vertex -1.890851e+00 -1.862326e-01 -1.000000e+01
    endloop
  endfacet
  facet normal 0.000000e+00 0.000000e+00 1.000000e+00
    outer loop
      vertex 0.000000e+00 0.000000e+00 1.000000e+01
      vertex -1.890851e+00 -1.862326e-01 1.000000e+01
      vertex -1.863492e+00 -3.706716e-01 1.000000e+01
    endloop
  endfacet
  facet normal -9.700313e-01 -2.429802e-01 0.000000e+00
    outer loop
      vertex -1.863492e+00 -3.706716e-01 -1.000000e+01
      vertex -1.818187e+00 -5.515409e-01 -1.000000e+01
      vertex -1.818187e+00 -5.515409e-01 1.000000e+01
    endloop
  endfacet
  facet normal -9.700313e-01 -2.429802e-01 0.000000e+00
    outer loop
      vertex -1.863492e+00 -3.706716e-01 -1.000000e+01
      vertex -1.818187e+00 -5.515409e-01 1.000000e+01
      vertex -1.863492e+00 -3.706716e-01 1.000000e+01
    endloop
  endfacet
  facet normal 0.000000e+00 0.000000e+00 -1.000000e+00
    outer loop
      vertex 0.000000e+00 0.000000e+00 -1.000000e+01
      vertex -1.818187e+00 -5.515409e-01 -1.000000e+01
      vertex -1.863492e+00 -3.706716e-01 -1.000000e+01
    endloop
  endfacet
  facet normal 0.000000e+00 0.000000e+00 1.000000e+00
    outer loop
      vertex 0.000000e+00 0.000000e+00 1.000000e+01
      vertex -1.863492e+00 -3.706716e-01 1.000000e+01
      vertex -1.818187e+00 -5.515409e-01 1.000000e+01
    endloop
  endfacet
  facet normal -9.415441e-01 -3.368899e-01 0.000000e+00
    outer loop
      vertex -1.818187e+00 -5.515409e-01 -1.000000e+01
      vertex -1.755371e+00 -7.270985e-01 -1.000000e+01
      vertex -1.755371e+00 -7.270985e-01 1.000000e+01
    endloop
  endfacet
  facet normal -9.415441e-01 -3.368899e-01 0.000000e+00
    outer loop
      vertex -1.818187e+00 -5.515409e-01 -1.000000e+01
      vertex -1.755371e+00 -7.270985e-01 1.000000e+01
      vertex -1.818187e+00 -5.515409e-01 1.000000e+01
    endloop
  endfacet
  facet normal 0.000000e+00 0.000000e+00 -1.000000e+00
    outer loop
      vertex 0.000000e+00 0.000000e+00 -1.000000e+01
      vertex -1.755371e+00 -7.270985e-01 -1.000000e+01
      vertex -1.818187e+00 -5.515409e-01 -1.000000e+01
    endloop
  endfacet
  facet normal 0.000000e+00 0.000000e+00 1.000000e+00
    outer loop
      vertex 0.000000e+00 0.000000e+00 1.000000e+01
      vertex -1.818187e+00 -5.515409e-01 1.000000e+01
      vertex -1.755371e+00 -7.270985e-01 1.000000e+01
    endloop
  endfacet
  facet normal -9.039893e-01 -4.275551e-01 0.000000e+00
    outer loop
      vertex -1.755371e+00 -7.270985e-01 -1.000000e+01
      vertex -1.675650e+00 -8.956538e-01 -1.000000e+01
      vertex -1.675650e+00 -8.956538e-01 1.000000e+01
    endloop
  endfacet
  facet normal -9.039893e-01 -4.275551e-01 0.000000e+00
    outer loop
      vertex -1.755371e+00 -7.270985e-01 -1.000000e+01
      vertex -1.675650e+00 -8.956538e-01 1.000000e+01
      vertex -1.755371e+00 -7.270985e-01 1.000000e+01
    endloop
  endfacet
  facet normal 0.000000e+00 0.000000e+00 -1.000000e+00
    outer loop
      vertex 0.000000e+00 0.000000e+00 -1.000000e+01
      vertex -1.675650e+00 -8.956538e-01 -1.000000e+01
      vertex -1.755371e+00 -7.270985e-01 -1.000000e+01
    endloop
  endfacet
  facet normal 0.000000e+00 0.000000e+00 1.000000e+00
    outer loop
      vertex 0.000000e+00 0.000000e+00 1.000000e+01
      vertex -1.755371e+00 -7.270985e-01 1.000000e+01
      vertex -1.675650e+00 -8.956538e-01 1.000000e+01
    endloop
  endfacet
  facet normal -8.577286e-01 -5.141027e-01 0.000000e+00
    outer loop
      vertex -1.675650e+00 -8.956538e-01 -1.000000e+01
      vertex -1.579792e+00 -1.055583e+00 -1.000000e+01
      vertex -1.579792e+00 -1.055583e+00 1.000000e+01
    endloop
  endfacet
  facet normal -8.577286e-01 -5.141027e-01 0.000000e+00
    outer loop
      vertex -1.675650e+00 -8.956538e-01 -1.000000e+01
      vertex -1.579792e+00 -1.055583e+00 1.000000e+01
      vertex -1.675650e+00 -8.956538e-01 1.000000e+01
    endloop
  endfacet
  facet normal 0.000000e+00 0.000000e+00 -1.000000e+00
    outer loop
      vertex 0.000000e+00 0.000000e+00 -1.000000e+01
      vertex -1.579792e+00 -1.055583e+00 -1.000000e+01
      vertex -1.675650e+00 -8.956538e-01 -1.000000e+01
    endloop
  endfacet
  facet normal 0.000000e+00 0.000000e+00 1.000000e+00
    outer loop
      vertex 0.000000e+00 0.000000e+00 1.000000e+01
      vertex -1.675650e+00 -8.956538e-01 1.000000e+01
      vertex -1.579792e+00 -1.055583e+00 1.000000e+01
    endloop
  endfacet
  facet normal -8.032075e-01 -5.956993e-01 0.000000e+00
    outer loop
      vertex -1.579792e+00 -1.055583e+00 -1.000000e+01
      vertex -1.468720e+00 -1.205347e+00 -1.000000e+01
      vertex -1.468720e+00 -1.205347e+00 1.000000e+01
    endloop
  endfacet
  facet normal -8.032075e-01 -5.956993e-01 0.000000e+00
    outer loop
      vertex -1.579792e+00 -1.055583e+00 -1.000000e+01
      vertex -1.468720e+00 -1.205347e+00 1.000000e+01
      vertex -1.579792e+00 -1.055583e+00 1.000000e+01
    endloop
  endfacet
  facet normal 0.000000e+00 0.000000e+00 -1.000000e+00
    outer loop
      vertex 0.000000e+00 0.000000e+00 -1.000000e+01
      vertex -1.468720e+00 -1.205347e+00 -1.000000e+01
      vertex -1.579792e+00 -1.055583e+00 -1.000000e+01
    endloop
  endfacet
  facet normal 0.000000e+00 0.000000e+00 1.000000e+00
    outer loop
      vertex 0.000000e+00 0.000000e+00 1.000000e+01
      vertex -1.579792e+00 -1.055583e+00 1.000000e+01
      vertex -1.468720e+00 -1.205347e+00 1.000000e+01
    endloop
  endfacet
  facet normal -7.409511e-01 -6.715590e-01 0.000000e+00
    outer loop
      vertex -1.468720e+00 -1.205347e+00 -1.000000e+01
      vertex -1.343503e+00 -1.343503e+00 -1.000000e+01
      vertex -1.343503e+00 -1.343503e+00 1.000000e+01
    endloop
  endfacet
  facet normal -7.409511e-01 -6.715590e-01 0.000000e+00
    outer loop
      vertex -1.468720e+00 -1.205347e+00 -1.000000e+01
      vertex -1.343503e+00 -1.343503e+00 1.000000e+01
      vertex -1.468720e+00 -1.205347e+00 1.000000e+01
    endloop
  endfacet
  facet normal 0.000000e+00 0.000000e+00 -1.000000e+00
    outer loop
      vertex 0.000000e+00 0.000000e+00 -1.000000e+01
      vertex -1.343503e+00 -1.343503e+00 -1.000000e+01
      vertex -1.468720e+00 -1.205347e+00 -1.000000e+01
    endloop
  endfacet
  facet normal 0.000000e+00 0.000000e+00 1.000000e+00
    outer loop
      vertex 0.000000e+00 0.000000e+00 1.000000e+01
      vertex -1.468720e+00 -1.205347e+00 1.000000e+01
      vertex -1.343503e+00 -1.343503e+00 1.000000e+01
    endloop
  endfacet
  facet normal -6.715590e-01 -7.409511e-01 0.000000e+00
    outer loop
      vertex -1.343503e+00 -1.343503e+00 -1.000000e+01
      vertex -1.205347e+00 -1.468720e+00 -1.000000e+01
      vertex -1.205347e+00 -1.468720e+00 1.000000e+01
    endloop
  endfacet
  facet normal -6.715590e-01 -7.409511e-01 0.000000e+00
    outer loop
      vertex -1.343503e+00 -1.343503e+00 -1.000000e+01
      vertex -1.205347e+00 -1.468720e+00 1.000000e+01
      vertex -1.343503e+00 -1.343503e+00 1.000000e+01
    endloop
  endfacet
  facet normal 0.000000e+00 0.000000e+00 -1.000000e+00
    outer loop
      vertex 0.000000e+00 0.000000e+00 -1.000000e+01
      vertex -1.205347e+00 -1.468720e+00 -1.000000e+01
      vertex -1.343503e+00 -1.343503e+00 -1.000000e+01
    endloop
  endfacet
  facet normal 0.000000e+00 0.000000e+00 1.000000e+00
    outer loop
      vertex 0.000000e+00 0.000000e+00 1.000000e+01
      vertex -1.343503e+00 -1.343503e+00 1.000000e+01
      vertex -1.205347e+00 -1.468720e+00 1.000000e+01
    endloop
  endfacet
  facet normal -5.956993e-01 -8.032075e-01 0.000000e+00
    outer loop
      vertex -1.205347e+00 -1.468720e+00 -1.000000e+01
      vertex -1.055583e+00 -1.579792e+00 -1.000000e+01
      vertex -1.055583e+00 -1.579792e+00 1.000000e+01
    endloop
  endfacet
  facet normal -5.956993e-01 -8.032075e-01 0.000000e+00
    outer loop
      vertex -1.205347e+00 -1.468720e+00 -1.000000e+01
      vertex -1.055583e+00 -1.579792e+00 1.000000e+01
      vertex -1.205347e+00 -1.468720e+00 1.000000e+01
    endloop
  endfacet
  facet normal 0.000000e+00 0.000000e+00 -1.000000e+00
    outer loop
      vertex 0.000000e+00 0.000000e+00 -1.000000e+01
      vertex -1.055583e+00 -1.579792e+00 -1.000000e+01
      vertex -1.205347e+00 -1.468720e+00 -1.000000e+01
    endloop
  endfacet
  facet normal 0.000000e+00 0.000000e+00 1.000000e+00
    outer loop
      vertex 0.000000e+00 0.000000e+00 1.000000e+01
      vertex -1.205347e+00 -1.468720e+00 1.000000e+01
      vertex -1.055583e+00 -1.579792e+00 1.000000e+01
    endloop
  endfacet
  facet normal -5.141027e-01 -8.577286e-01 0.000000e+00
    outer loop
      vertex -1.055583e+00 -1.579792e+00 -1.000000e+01
      vertex -8.956538e-01 -1.675650e+00 -1.000000e+01
      vertex -8.956538e-01 -1.675650e+00 1.000000e+01
    endloop
  endfacet
  facet normal -5.141027e-01 -8.577286e-01 0.000000e+00
    outer loop
      vertex -1.055583e+00 -1.579792e+00 -1.000000e+01
      vertex -8.956538e-01 -1.675650e+00 1.000000e+01
      vertex -1.055583e+00 -1.579792e+00 1.000000e+01
    endloop
  endfacet
  facet normal 0.000000e+00 0.000000e+00 -1.000000e+00
    outer loop
      vertex 0.000000e+00 0.000000e+00 -1.000000e+01
      vertex -8.956538e-01 -1.675650e+00 -1.000000e+01
      vertex -1.055583e+00 -1.579792e+00 -1.000000e+01
    endloop
  endfacet
  facet normal 0.000000e+00 0.000000e+00 1.000000e+00
    outer loop
      vertex 0.000000e+00 0.000000e+00 1.000000e+01
      vertex -1.055583e+00 -1.579792e+00 1.000000e+01
      vertex -8.956538e-01 -1.675650e+00 1.000000e+01
    endloop
  endfacet
  facet normal -4.275551e-01 -9.039893e-01 0.000000e+00
    outer loop
      vertex -8.956538e-01 -1.675650e+00 -1.000000e+01
      vertex -7.270985e-01 -1.755371e+00 -1.000000e+01
      vertex -7.270985e-01 -1.755371e+00 1.000000e+01
    endloop
  endfacet
  facet normal -4.275551e-01 -9.039893e-01 0.000000e+00
    outer loop
      vertex -8.956538e-01 -1.675650e+00 -1.000000e+01
      vertex -7.270985e-01 -1.755371e+00 1.000000e+01
      vertex -8.956538e-01 -1.675650e+00 1.000000e+01
    endloop
  endfacet
  facet normal 0.000000e+00 0.000000e+00 -1.000000e+00
    outer loop
      vertex 0.000000e+00 0.000000e+00 -1.000000e+01
      vertex -7.270985e-01 -1.755371e+00 -1.000000e+01
      vertex -8.956538e-01 -1.675650e+00 -1.000000e+01
    endloop
  endfacet
  facet normal 0.000000e+00 0.000000e+00 1.000000e+00
    outer loop
      vertex 0.000000e+00 0.000000e+00 1.000000e+01
      vertex -8.956538e-01 -1.675650e+00 1.000000e+01
      vertex -7.270985e-01 -1.755371e+00 1.000000e+01
    endloop
  endfacet
  facet normal -3.368899e-01 -9.415441e-01 0.000000e+00
    outer loop
      vertex -7.270985e-01 -1.755371e+00 -1.000000e+01
      vertex -5.515409e-01 -1.818187e+00 -1.000000e+01
      vertex -5.515409e-01 -1.818187e+00 1.000000e+01
    endloop
  endfacet
  facet normal -3.368899e-01 -9.415441e-01 0.000000e+00
    outer loop
      vertex -7.270985e-01 -1.755371e+00 -1.000000e+01
      vertex -5.515409e-01 -1.818187e+00 1.000000e+01
      vertex -7.270985e-01 -1.755371e+00 1.000000e+01
    endloop
  endfacet
  facet normal 0.000000e+00 0.000000e+00 -1.000000e+00
    outer loop
      vertex 0.000000e+00 0.000000e+00 -1.000000e+01
      vertex -5.515409e-01 -1.818187e+00 -1.000000e+01
      vertex -7.270985e-01 -1.755371e+00 -1.000000e+01
    endloop
  endfacet
  facet normal 0.000000e+00 0.000000e+00 1.000000e+00
    outer loop
      vertex 0.000000e+00 0.000000e+00 1.000000e+01
      vertex -7.270985e-01 -1.755371e+00 1.000000e+01
      vertex -5.515409e-01 -1.818187e+00 1.000000e+01
    endloop
  endfacet
  facet normal -2.429802e-01 -9.700313e-01 0.000000e+00
    outer loop
      vertex -5.515409e-01 -1.818187e+00 -1.000000e+01
      vertex -3.706716e-01 -1.863492e+00 -1.000000e+01
      vertex -3.706716e-01 -1.863492e+00 1.000000e+01
    endloop
  endfacet
  facet normal -2.429802e-01 -9.700313e-01 0.000000e+00
    outer loop
      vertex -5.515409e-01 -1.818187e+00 -1.000000e+01
      vertex -3.706716e-01 -1.863492e+00 1.000000e+01
      vertex -5.515409e-01 -1.818187e+00 1.000000e+01
    endloop
  endfacet
  facet normal 0.000000e+00 0.000000e+00 -1.000000e+00
    outer loop
      vertex 0.000000e+00 0.000000e+00 -1.000000e+01
      vertex -3.706716e-01 -1.863492e+00 -1.000000e+01
      vertex -5.515409e-01 -1.818187e+00 -1.000000e+01
    endloop
  endfacet
  facet normal 0.000000e+00 0.000000e+00 1.000000e+00
    outer loop
      vertex 0.000000e+00 0.000000e+00 1.000000e+01
      vertex -5.515409e-01 -1.818187e+00 1.000000e+01
      vertex -3.706716e-01 -1.863492e+00 1.000000e+01
    endloop
  endfacet
  facet normal -1.467305e-01 -9.891765e-01 0.000000e+00
    outer loop
      vertex -3.706716e-01 -1.863492e+00 -1.000000e+01
      vertex -1.862326e-01 -1.890851e+00 -1.000000e+01
      vertex -1.862326e-01 -1.890851e+00 1.000000e+01
    endloop
  endfacet
  facet normal -1.467305e-01 -9.891765e-01 0.000000e+00
    outer loop
      vertex -3.706716e-01 -1.863492e+00 -1.000000e+01
      vertex -1.862326e-01 -1.890851e+00 1.000000e+01
      vertex -3.706716e-01 -1.863492e+00 1.000000e+01
    endloop
  endfacet
  facet normal 0.000000e+00 0.000000e+00 -1.000000e+00
    outer loop
      vertex 0.000000e+00 0.000000e+00 -1.000000e+01
      vertex -1.862326e-01 -1.890851e+00 -1.000000e+01
      vertex -3.706716e-01 -1.863492e+00 -1.000000e+01
    endloop
  endfacet
  facet normal 0.000000e+00 0.000000e+00 1.000000e+00
    outer loop
      vertex 0.000000e+00 0.000000e+00 1.000000e+01
      vertex -3.706716e-01 -1.863492e+00 1.000000e+01
      vertex -1.862326e-01 -1.890851e+00 1.000000e+01
    endloop
  endfacet
  facet normal -4.906767e-02 -9.987955e-01 0.000000e+00
    outer loop
      vertex -1.862326e-01 -1.890851e+00 -1.000000e+01
      vertex -3.490243e-16 -1.900000e+00 -1.000000e+01
      vertex -3.490243e-16 -1.900000e+00 1.000000e+01
    endloop
  endfacet
  facet normal -4.906767e-02 -9.987955e-01 0.000000e+00
    outer loop
      vertex -1.862326e-01 -1.890851e+00 -1.000000e+01
      vertex -3.490243e-16 -1.900000e+00 1.000000e+01
      vertex -1.862326e-01 -1.890851e+00 1.000000e+01
    endloop
  endfacet
  facet normal 0.000000e+00 0.000000e+00 -1.000000e+00
    outer loop
      vertex 0.000000e+00 0.000000e+00 -1.000000e+01
      vertex -3.490243e-16 -1.900000e+00 -1.000000e+01
      vertex -1.862326e-01 -1.890851e+00 -1.000000e+01
    endloop
  endfacet
  facet normal 0.000000e+00 0.000000e+00 1.000000e+00
    outer loop
      vertex 0.000000e+00 0.000000e+00 1.000000e+01
      vertex -1.862326e-01 -1.890851e+00 1.000000e+01
      vertex -3.490243e-16 -1.900000e+00 1.000000e+01
    endloop
  endfacet
  facet normal 4.906767e-02 -9.987955e-01 0.000000e+00
    outer loop
      vertex -3.490243e-16 -1.900000e+00 -1.000000e+01
      vertex 1.862326e-01 -1.890851e+00 -1.000000e+01
      vertex 1.862326e-01 -1.890851e+00 1.000000e+01
    endloop
  endfacet
  facet normal 4.906767e-02 -9.987955e-01 0.000000e+00
    outer loop
      vertex -3.490243e-16 -1.900000e+00 -1.000000e+01
      vertex 1.862326e-01 -1.890851e+00 1.000000e+01
      vertex -3.490243e-16 -1.900000e+00 1.000000e+01
    endloop
  endfacet
  facet normal 0.000000e+00 -0.000000e+00 -1.000000e+00
    outer loop
      vertex 0.000000e+00 0.000000e+00 -1.000000e+01
      vertex 1.862326e-01 -1.890851e+00 -1.000000e+01
      vertex -3.490243e-16 -1.900000e+00 -1.000000e+01
    endloop
  endfacet
  facet normal 0.000000e+00 0.000000e+00 1.000000e+00
    outer loop
      vertex 0.000000e+00 0.000000e+00 1.000000e+01
      vertex -3.490243e-16 -1.900000e+00 1.000000e+01
      vertex 1.862326e-01 -1.890851e+00 1.000000e+01
    endloop
  endfacet
  facet normal 1.467305e-01 -9.891765e-01 0.000000e+00
    outer loop
      vertex 1.862326e-01 -1.890851e+00 -1.000000e+01
      vertex 3.706716e-01 -1.863492e+00 -1.000000e+01
      vertex 3.706716e-01 -1.863492e+00 1.000000e+01
    endloop
  endfacet
  facet normal 1.467305e-01 -9.891765e-01 0.000000e+00
    outer loop
      vertex 1.862326e-01 -1.890851e+00 -1.000000e+01
      vertex 3.706716e-01 -1.863492e+00 1.000000e+01
      vertex 1.862326e-01 -1.890851e+00 1.000000e+01
    endloop
  endfacet
  facet normal 0.000000e+00 0.000000e+00 -1.000000e+00
    outer loop
      vertex 0.000000e+00 0.000000e+00 -1.000000e+01
      vertex 3.706716e-01 -1.863492e+00 -1.000000e+01
      vertex 1.862326e-01 -1.890851e+00 -1.000000e+01
    endloop
  endfacet
  facet normal 0.000000e+00 0.000000e+00 1.000000e+00
    outer loop
      vertex 0.000000e+00 0.000000e+00 1.000000e+01
      vertex 1.862326e-01 -1.890851e+00 1.000000e+01
      vertex 3.706716e-01 -1.863492e+00 1.000000e+01
    endloop
  endfacet
  facet normal 2.429802e-01 -9.700313e-01 0.000000e+00
    outer loop
      vertex 3.706716e-01 -1.863492e+00 -1.000000e+01
      vertex 5.515409e-01 -1.818187e+00 -1.000000e+01
      vertex 5.515409e-01 -1.818187e+00 1.000000e+01
    endloop
  endfacet
  facet normal 2.429802e-01 -9.700313e-01 0.000000e+00
    outer loop
      vertex 3.706716e-01 -1.863492e+00 -1.000000e+01
      vertex 5.515409e-01 -1.818187e+00 1.000000e+01
      vertex 3.706716e-01 -1.863492e+00 1.000000e+01
    endloop
  endfacet
  facet normal 0.000000e+00 0.000000e+00 -1.000000e+00
    outer loop
      vertex 0.000000e+00 0.000000e+00 -1.000000e+01
      vertex 5.515409e-01 -1.818187e+00 -1.000000e+01
      vertex 3.706716e-01 -1.863492e+00 -1.000000e+01
    endloop
  endfacet
  facet normal 0.000000e+00 0.000000e+00 1.000000e+00
    outer loop
      vertex 0.000000e+00 0.000000e+00 1.000000e+01
      vertex 3.706716e-01 -1.863492e+00 1.000000e+01
      vertex 5.515409e-01 -1.818187e+00 1.000000e+01
    endloop
  endfacet
  facet normal 3.368899e-01 -9.415441e-01 0.000000e+00
    outer loop
      vertex 5.515409e-01 -1.818187e+00 -1.000000e+01
      vertex 7.270985e-01 -1.755371e+00 -1.000000e+01
      vertex 7.270985e-01 -1.755371e+00 1.000000e+01
    endloop
  endfacet
  facet normal 3.368899e-01 -9.415441e-01 0.000000e+00
    outer loop
      vertex 5.515409e-01 -1.818187e+00 -1.000000e+01
      vertex 7.270985e-01 -1.755371e+00 1.000000e+01
      vertex 5.515409e-01 -1.818187e+00 1.000000e+01
    endloop
  endfacet
  facet normal 0.000000e+00 0.000000e+00 -1.000000e+00
    outer loop
      vertex 0.000000e+00 0.000000e+00 -1.000000e+01
      vertex 7.270985e-01 -1.755371e+00 -1.000000e+01
      vertex 5.515409e-01 -1.818187e+00 -1.000000e+01
    endloop
  endfacet
  facet normal 0.000000e+00 0.000000e+00 1.000000e+00
    outer loop
      vertex 0.000000e+00 0.000000e+00 1.000000e+01
      vertex 5.515409e-01 -1.818187e+00 1.000000e+01
      vertex 7.270985e-01 -1.755371e+00 1.000000e+01
    endloop
  endfacet
  facet normal 4.275551e-01 -9.039893e-01 0.000000e+00
    outer loop
      vertex 7.270985e-01 -1.755371e+00 -1.000000e+01
      vertex 8.956538e-01 -1.675650e+00 -1.000000e+01
      vertex 8.956538e-01 -1.675650e+00 1.000000e+01
    endloop
  endfacet
  facet normal 4.275551e-01 -9.039893e-01 0.000000e+00
    outer loop
      vertex 7.270985e-01 -1.755371e+00 -1.000000e+01
      vertex 8.956538e-01 -1.675650e+00 1.000000e+01
      vertex 7.270985e-01 -1.755371e+00 1.000000e+01
    endloop
  endfacet
  facet normal 0.000000e+00 0.000000e+00 -1.000000e+00
    outer loop
      vertex 0.000000e+00 0.000000e+00 -1.000000e+01
      vertex 8.956538e-01 -1.675650e+00 -1.000000e+01
      vertex 7.270985e-01 -1.755371e+00 -1.000000e+01
    endloop
  endfacet
  facet normal 0.000000e+00 0.000000e+00 1.000000e+00
    outer loop
      vertex 0.000000e+00 0.000000e+00 1.000000e+01
      vertex 7.270985e-01 -1.755371e+00 1.000000e+01
      vertex 8.956538e-01 -1.675650e+00 1.000000e+01
    endloop
  endfacet
  facet normal 5.141027e-01 -8.577286e-01 0.000000e+00
    outer loop
      vertex 8.956538e-01 -1.675650e+00 -1.000000e+01
      vertex 1.055583e+00 -1.579792e+00 -1.000000e+01
      vertex 1.055583e+00 -1.579792e+00 1.000000e+01
    endloop
  endfacet
  facet normal 5.141027e-01 -8.577286e-01 0.000000e+00
    outer loop
      vertex 8.956538e-01 -1.675650e+00 -1.000000e+01
      vertex 1.055583e+00 -1.579792e+00 1.000000e+01
      vertex 8.956538e-01 -1.675650e+00 1.000000e+01
    endloop
  endfacet
  facet normal 0.000000e+00 0.000000e+00 -1.000000e+00
    outer loop
      vertex 0.000000e+00 0.000000e+00 -1.000000e+01
      vertex 1.055583e+00 -1.579792e+00 -1.000000e+01
      vertex 8.956538e-01 -1.675650e+00 -1.000000e+01
    endloop
  endfacet
  facet normal 0.000000e+00 0.000000e+00 1.000000e+00
    outer loop
      vertex 0.000000e+00 0.000000e+00 1.000000e+01
      vertex 8.956538e-01 -1.675650e+00 1.000000e+01
      vertex 1.055583e+00 -1.579792e+00 1.000000e+01
    endloop
  endfacet
  facet normal 5.956993e-01 -8.032075e-01 0.000000e+00
    outer loop
      vertex 1.055583e+00 -1.579792e+00 -1.000000e+01
      vertex 1.205347e+00 -1.468720e+00 -1.000000e+01
      vertex 1.205347e+00 -1.468720e+00 1.000000e+01
    endloop
  endfacet
  facet normal 5.956993e-01 -8.032075e-01 0.000000e+00
    outer loop
      vertex 1.055583e+00 -1.579792e+00 -1.000000e+01
      vertex 1.205347e+00 -1.468720e+00 1.000000e+01
      vertex 1.055583e+00 -1.579792e+00 1.000000e+01
    endloop
  endfacet
  facet normal 0.000000e+00 0.000000e+00 -1.000000e+00
    outer loop
      vertex 0.000000e+00 0.000000e+00 -1.000000e+01
      vertex 1.205347e+00 -1.468720e+00 -1.000000e+01
      vertex 1.055583e+00 -1.579792e+00 -1.000000e+01
    endloop
  endfacet
  facet normal 0.000000e+00 0.000000e+00 1.000000e+00
    outer loop
      vertex 0.000000e+00 0.000000e+00 1.000000e+01
      vertex 1.055583e+00 -1.579792e+00 1.000000e+01
      vertex 1.205347e+00 -1.468720e+00 1.000000e+01
    endloop
  endfacet
  facet normal 6.715590e-01 -7.409511e-01 0.000000e+00
    outer loop
      vertex 1.205347e+00 -1.468720e+00 -1.000000e+01
      vertex 1.343503e+00 -1.343503e+00 -1.000000e+01
      vertex 1.343503e+00 -1.343503e+00 1.000000e+01
    endloop
  endfacet
  facet normal 6.715590e-01 -7.409511e-01 0.000000e+00
    outer loop
      vertex 1.205347e+00 -1.468720e+00 -1.000000e+01
      vertex 1.343503e+00 -1.343503e+00 1.000000e+01
      vertex 1.205347e+00 -1.468720e+00 1.000000e+01
    endloop
  endfacet
  facet normal 0.000000e+00 0.000000e+00 -1.000000e+00
    outer loop
      vertex 0.000000e+00 0.000000e+00 -1.000000e+01
      vertex 1.343503e+00 -1.343503e+00 -1.000000e+01
      vertex 1.205347e+00 -1.468720e+00 -1.000000e+01
    endloop
  endfacet
  facet normal 0.000000e+00 0.000000e+00 1.000000e+00
    outer loop
      vertex 0.000000e+00 0.000000e+00 1.000000e+01
      vertex 1.205347e+00 -1.468720e+00 1.000000e+01
      vertex 1.343503e+00 -1.343503e+00 1.000000e+01
    endloop
  endfacet
  facet normal 7.409511e-01 -6.715590e-01 0.000000e+00
    outer loop
      vertex 1.343503e+00 -1.343503e+00 -1.000000e+01
      vertex 1.468720e+00 -1.205347e+00 -1.000000e+01
      vertex 1.468720e+00 -1.205347e+00 1.000000e+01
    endloop
  endfacet
  facet normal 7.409511e-01 -6.715590e-01 0.000000e+00
    outer loop
      vertex 1.343503e+00 -1.343503e+00 -1.000000e+01
      vertex 1.468720e+00 -1.205347e+00 1.000000e+01
      vertex 1.343503e+00 -1.343503e+00 1.000000e+01
    endloop
  endfacet
  facet normal 0.000000e+00 0.000000e+00 -1.000000e+00
    outer loop
      vertex 0.000000e+00 0.000000e+00 -1.000000e+01
      vertex 1.468720e+00 -1.205347e+00 -1.000000e+01
      vertex 1.343503e+00 -1.343503e+00 -1.000000e+01
    endloop
  endfacet
  facet normal 0.000000e+00 0.000000e+00 1.000000e+00
    outer loop
      vertex 0.000000e+00 0.000000e+00 1.000000e+01
      vertex 1.343503e+00 -1.343503e+00 1.000000e+01
      vertex 1.468720e+00 -1.205347e+00 1.000000e+01
    endloop
  endfacet
  facet normal 8.032075e-01 -5.956993e-01 0.000000e+00
    outer loop
      vertex 1.468720e+00 -1.205347e+00 -1.000000e+01
      vertex 1.579792e+00 -1.055583e+00 -1.000000e+01
      vertex 1.579792e+00 -1.055583e+00 1.000000e+01
    endloop
  endfacet
  facet normal 8.032075e-01 -5.956993e-01 0.000000e+00
    outer loop
      vertex 1.468720e+00 -1.205347e+00 -1.000000e+01
      vertex 1.579792e+00 -1.055583e+00 1.000000e+01
      vertex 1.468720e+00 -1.205347e+00 1.000000e+01
    endloop
  endfacet
  facet normal 0.000000e+00 0.000000e+00 -1.000000e+00
    outer loop
      vertex 0.000000e+00 0.000000e+00 -1.000000e+01
      vertex 1.579792e+00 -1.055583e+00 -1.000000e+01
      vertex 1.468720e+00 -1.205347e+00 -1.000000e+01
    endloop
  endfacet
  facet normal 0.000000e+00 0.000000e+00 1.000000e+00
    outer loop
      vertex 0.000000e+00 0.000000e+00 1.000000e+01
      vertex 1.468720e+00 -1.205347e+00 1.000000e+01
      vertex 1.579792e+00 -1.055583e+00 1.000000e+01
    endloop
  endfacet
  facet normal 8.577286e-01 -5.141027e-01 0.000000e+00
    outer loop
      vertex 1.579792e+00 -1.055583e+00 -1.000000e+01
      vertex 1.675650e+00 -8.956538e-01 -1.000000e+01
      vertex 1.675650e+00 -8.956538e-01 1.000000e+01
    endloop
  endfacet
  facet normal 8.577286e-01 -5.141027e-01 0.000000e+00
    outer loop
      vertex 1.579792e+00 -1.055583e+00 -1.000000e+01
      vertex 1.675650e+00 -8.956538e-01 1.000000e+01
      vertex 1.579792e+00 -1.055583e+00 1.000000e+01
    endloop
  endfacet
  facet normal 0.000000e+00 0.000000e+00 -1.000000e+00
    outer loop
      vertex 0.000000e+00 0.000000e+00 -1.000000e+01
      vertex 1.675650e+00 -8.956538e-01 -1.000000e+01
      vertex 1.579792e+00 -1.055583e+00 -1.000000e+01
    endloop
  endfacet
  facet normal 0.000000e+00 0.000000e+00 1.000000e+00
    outer loop
      vertex 0.000000e+00 0.000000e+00 1.000000e+01
      vertex 1.579792e+00 -1.055583e+00 1.000000e+01
      vertex 1.675650e+00 -8.956538e-01 1.000000e+01
    endloop
  endfacet
  facet normal 9.039893e-01 -4.275551e-01 0.000000e+00
    outer loop
      vertex 1.675650e+00 -8.956538e-01 -1.000000e+01
      vertex 1.755371e+00 -7.270985e-01 -1.000000e+01
      vertex 1.755371e+00 -7.270985e-01 1.000000e+01
    endloop
  endfacet
  facet normal 9.039893e-01 -4.275551e-01 0.000000e+00
    outer loop
      vertex 1.675650e+00 -8.956538e-01 -1.000000e+01
      vertex 1.755371e+00 -7.270985e-01 1.000000e+01
      vertex 1.675650e+00 -8.956538e-01 1.000000e+01
    endloop
  endfacet
  facet normal 0.000000e+00 0.000000e+00 -1.000000e+00
    outer loop
      vertex 0.000000e+00 0.000000e+00 -1.000000e+01
      vertex 1.755371e+00 -7.270985e-01 -1.000000e+01
      vertex 1.675650e+00 -8.956538e-01 -1.000000e+01
    endloop
  endfacet
  facet normal 0.000000e+00 0.000000e+00 1.000000e+00
    outer loop
      vertex 0.000000e+00 0.000000e+00 1.000000e+01
      vertex 1.675650e+00 -8.956538e-01 1.000000e+01
      vertex 1.755371e+00 -7.270985e-01 1.000000e+01
    endloop
  endfacet
  facet normal 9.415441e-01 -3.368899e-01 0.000000e+00
    outer loop
      vertex 1.755371e+00 -7.270985e-01 -1.000000e+01
      vertex 1.818187e+00 -5.515409e-01 -1.000000e+01
      vertex 1.818187e+00 -5.515409e-01 1.000000e+01
    endloop
  endfacet
  facet normal 9.415441e-01 -3.368899e-01 0.000000e+00
    outer loop
      vertex 1.755371e+00 -7.270985e-01 -1.000000e+01
      vertex 1.818187e+00 -5.515409e-01 1.000000e+01
      vertex 1.755371e+00 -7.270985e-01 1.000000e+01
    endloop
  endfacet
  facet normal 0.000000e+00 0.000000e+00 -1.000000e+00
    outer loop
      vertex 0.000000e+00 0.000000e+00 -1.000000e+01
      vertex 1.818187e+00 -5.515409e-01 -1.000000e+01
      vertex 1.755371e+00 -7.270985e-01 -1.000000e+01
    endloop
  endfacet
  facet normal 0.000000e+00 0.000000e+00 1.000000e+00
    outer loop
      vertex 0.000000e+00 0.000000e+00 1.000000e+01
      vertex 1.755371e+00 -7.270985e-01 1.000000e+01
      vertex 1.818187e+00 -5.515409e-01 1.000000e+01
    endloop
  endfacet
  facet normal 9.700313e-01 -2.429802e-01 0.000000e+00
    outer loop
      vertex 1.818187e+00 -5.515409e-01 -1.000000e+01
      vertex 1.863492e+00 -3.706716e-01 -1.000000e+01
      vertex 1.863492e+00 -3.706716e-01 1.000000e+01
    endloop
  endfacet
  facet normal 9.700313e-01 -2.429802e-01 0.000000e+00
    outer loop
      vertex 1.818187e+00 -5.515409e-01 -1.000000e+01
      vertex 1.863492e+00 -3.706716e-01 1.000000e+01
      vertex 1.818187e+00 -5.515409e-01 1.000000e+01
    endloop
  endfacet
  facet normal 0.000000e+00 0.000000e+00 -1.000000e+00
    outer loop
      vertex 0.000000e+00 0.000000e+00 -1.000000e+01
      vertex 1.863492e+00 -3.706716e-01 -1.000000e+01
      vertex 1.818187e+00 -5.515409e-01 -1.000000e+01
    endloop
  endfacet
  facet normal 0.000000e+00 0.000000e+00 1.000000e+00
    outer loop
      vertex 0.000000e+00 0.000000e+00 1.000000e+01
      vertex 1.818187e+00 -5.515409e-01 1.000000e+01
      vertex 1.863492e+00 -3.706716e-01 1.000000e+01
    endloop
  endfacet
  facet normal 9.891765e-01 -1.467305e-01 0.000000e+00
    outer loop
      vertex 1.863492e+00 -3.706716e-01 -1.000000e+01
      vertex 1.890851e+00 -1.862326e-01 -1.000000e+01
      vertex 1.890851e+00 -1.862326e-01 1.000000e+01
    endloop
  endfacet
  facet normal 9.891765e-01 -1.467305e-01 0.000000e+00
    outer loop
      vertex 1.863492e+00 -3.706716e-01 -1.000000e+01
      vertex 1.890851e+00 -1.862326e-01 1.000000e+01
      vertex 1.863492e+00 -3.706716e-01 1.000000e+01
    endloop
  endfacet
  facet normal 0.000000e+00 0.000000e+00 -1.000000e+00
    outer loop
      vertex 0.000000e+00 0.000000e+00 -1.000000e+01
      vertex 1.890851e+00 -1.862326e-01 -1.000000e+01
      vertex 1.863492e+00 -3.706716e-01 -1.000000e+01
    endloop
  endfacet
  facet normal 0.000000e+00 0.000000e+00 1.000000e+00
    outer loop
      vertex 0.000000e+00 0.000000e+00 1.000000e+01
      vertex 1.863492e+00 -3.706716e-01 1.000000e+01
      vertex 1.890851e+00 -1.862326e-01 1.000000e+01
    endloop
  endfacet
  facet normal 9.987955e-01 -4.906767e-02 0.000000e+00
    outer loop
      vertex 1.890851e+00 -1.862326e-01 -1.000000e+01
      vertex 1.900000e+00 -4.653658e-16 -1.000000e+01
      vertex 1.900000e+00 -4.653658e-16 1.000000e+01
    endloop
  endfacet
  facet normal 9.987955e-01 -4.906767e-02 0.000000e+00
    outer loop
      vertex 1.890851e+00 -1.862326e-01 -1.000000e+01
      vertex 1.900000e+00 -4.653658e-16 1.000000e+01
      vertex 1.890851e+00 -1.862326e-01 1.000000e+01
    endloop
  endfacet
  facet normal 0.000000e+00 0.000000e+00 -1.000000e+00
    outer loop
      vertex 0.000000e+00 0.000000e+00 -1.000000e+01
      vertex 1.900000e+00 -4.653658e-16 -1.000000e+01
      vertex 1.890851e+00 -1.862326e-01 -1.000000e+01
    endloop
  endfacet
  facet normal 0.000000e+00 0.000000e+00 1.000000e+00
    outer loop
      vertex 0.000000e+00 0.000000e+00 1.000000e+01
      vertex 1.890851e+00 -1.862326e-01 1.000000e+01
      vertex 1.900000e+00 -4.653658e-16 1.000000e+01
    endloop
  endfacet
endsolid owc_piston_4m
